# xmcd
#
# Track frame offsets: 
#        150
#        17735
#        31397
#        48084
#        62635
#        80695
#        96408
#        114627
#        127268
#        144213
#        159640
#        173721
#
# Disc length: 2511 seconds
#
# Revision: 2
# Processed by: cddbd v1.5.2PL0 Copyright (c) Steve Scherf et al.
# Submitted via: ExactAudioCopy v0.95b4
#
DISCID=9f09cd0c
DTITLE=Mike Denver - Wings to Fly
DYEAR=2002
DGENRE=Country
TTITLE0=You're The Best Friend
TTITLE1=Cry, Cry, Cry
TTITLE2=Inside Out
TTITLE3=It's A Dream Come True
TTITLE4=Mamas (Don't Let Your Babies Grow Up To Be Cowboys)
TTITLE5=The Walk Of Life
TTITLE6=The Last Waltz
TTITLE7=Love Me Tonight
TTITLE8=The Night Big Tom Came To Town
TTITLE9=Hills Of Donegal
TTITLE10=Bring Your Love Back
TTITLE11=Handy Man
EXTD=YEAR: 2002
EXTT0=
EXTT1=
EXTT2=
EXTT3=
EXTT4=
EXTT5=
EXTT6=
EXTT7=
EXTT8=
EXTT9=
EXTT10=
EXTT11=
PLAYORDER=
